<?xml version="1.0" encoding="utf-8" standalone="no"?>
<!DOCTYPE svg PUBLIC "-//W3C//DTD SVG 1.1//EN"
  "http://www.w3.org/Graphics/SVG/1.1/DTD/svg11.dtd">
<svg xmlns:xlink="http://www.w3.org/1999/xlink" width="614.4pt" height="345.6pt" viewBox="0 0 614.4 345.6" xmlns="http://www.w3.org/2000/svg" version="1.1">
 <metadata>
  <rdf:RDF xmlns:dc="http://purl.org/dc/elements/1.1/" xmlns:cc="http://creativecommons.org/ns#" xmlns:rdf="http://www.w3.org/1999/02/22-rdf-syntax-ns#">
   <cc:Work>
    <dc:type rdf:resource="http://purl.org/dc/dcmitype/StillImage"/>
    <dc:date>2022-10-27T16:12:05.289023</dc:date>
    <dc:format>image/svg+xml</dc:format>
    <dc:creator>
     <cc:Agent>
      <dc:title>Matplotlib v3.5.1, https://matplotlib.org/</dc:title>
     </cc:Agent>
    </dc:creator>
   </cc:Work>
  </rdf:RDF>
 </metadata>
 <defs>
  <style type="text/css">*{stroke-linejoin: round; stroke-linecap: butt}</style>
 </defs>
 <g id="figure_1">
  <g id="patch_1">
   <path d="M 0 345.6 
L 614.4 345.6 
L 614.4 0 
L 0 0 
z
" style="fill: #ffffff"/>
  </g>
  <g id="axes_1">
   <g id="patch_2">
    <path d="M 50.565625 321.621875 
L 603.6 321.621875 
L 603.6 10.8 
L 50.565625 10.8 
z
" style="fill: #ffffff"/>
   </g>
   <path d="M 295.486081 305.985034 
L 296.486081 306.016471 
L 297.486081 306.053411 
L 298.486081 306.151157 
L 299.486081 306.183679 
L 300.486081 306.257304 
L 301.486081 306.295869 
L 302.486081 306.331282 
L 303.486081 306.388922 
L 304.486081 306.459309 
L 305.486081 306.511273 
L 306.486081 306.570363 
L 307.486081 306.658684 
L 308.486081 306.704828 
L 309.486081 306.747239 
L 310.486081 306.777731 
L 311.486081 306.803776 
L 312.486081 306.824976 
L 313.486081 306.879278 
L 314.486081 306.907215 
L 315.486081 306.936939 
L 316.486081 306.962334 
L 317.486081 306.973534 
L 318.486081 306.983658 
L 319.486081 306.983454 
L 320.486081 306.973944 
L 321.486081 306.962291 
L 322.486081 306.931261 
L 323.486081 306.920093 
L 324.486081 306.889976 
L 325.486081 306.830199 
L 326.486081 306.793007 
L 327.486081 306.753911 
L 328.486081 306.711472 
L 329.486081 306.678706 
L 330.486081 306.61128 
L 331.486081 306.572154 
L 332.486081 306.52948 
L 333.486081 306.458899 
L 334.486081 306.422508 
L 335.486081 306.364105 
L 336.486081 306.253152 
L 337.486081 306.182494 
L 338.486081 306.069554 
L 339.486081 306.023781 
L 340.486081 305.962498 
L 341.486081 305.913999 
L 342.486081 305.833176 
L 343.486081 305.714657 
L 344.486081 305.644447 
L 345.486081 305.561184 
L 346.486081 305.528042 
L 347.486081 305.476805 
L 348.486081 305.408407 
L 349.486081 305.342191 
L 350.486081 305.265274 
L 351.486081 305.237959 
L 352.486081 305.211481 
L 353.486081 305.18883 
L 354.486081 305.169299 
L 355.486081 305.142905 
L 356.486081 305.093134 
L 357.486081 305.058061 
L 358.679544 305.022196 
" clip-path="url(#pf4616b2edf)" style="fill: none; stroke: #1f77b4; stroke-opacity: 0.5; stroke-width: 0.2; stroke-linecap: square"/>
   <path d="M 295.486081 114.209736 
L 296.486081 114.241172 
L 297.486081 114.278113 
L 298.486081 114.375859 
L 299.486081 114.408381 
L 300.486081 114.482005 
L 301.486081 114.520571 
L 302.486081 114.555984 
L 303.486081 114.613624 
L 304.486081 114.68401 
L 305.486081 114.735975 
L 306.486081 114.795064 
L 307.486081 114.883385 
L 308.486081 114.92953 
L 309.486081 114.971941 
L 310.486081 115.002433 
L 311.486081 115.028478 
L 312.486081 115.049678 
L 313.486081 115.103979 
L 314.486081 115.131917 
L 315.486081 115.161641 
L 316.486081 115.187036 
L 317.486081 115.198236 
L 318.486081 115.20836 
L 319.486081 115.208156 
L 320.486081 115.198646 
L 321.486081 115.186992 
L 322.486081 115.155963 
L 323.486081 115.144795 
L 324.486081 115.114678 
L 325.486081 115.054901 
L 326.486081 115.017709 
L 327.486081 114.978613 
L 328.486081 114.936173 
L 329.486081 114.903408 
L 330.486081 114.835982 
L 331.486081 114.796856 
L 332.486081 114.754181 
L 333.486081 114.683601 
L 334.486081 114.64721 
L 335.486081 114.588807 
L 336.486081 114.477854 
L 337.486081 114.407196 
L 338.486081 114.294256 
L 339.486081 114.248483 
L 340.486081 114.1872 
L 341.486081 114.1387 
L 342.486081 114.057878 
L 343.486081 113.939359 
L 344.486081 113.869148 
L 345.486081 113.785886 
L 346.486081 113.752744 
L 347.486081 113.701507 
L 348.486081 113.633108 
L 349.486081 113.566893 
L 350.486081 113.489976 
L 351.486081 113.46266 
L 352.486081 113.436183 
L 353.486081 113.413532 
L 354.486081 113.394001 
L 355.486081 113.367607 
L 356.486081 113.317836 
L 357.486081 113.282763 
L 358.679544 113.246897 
" clip-path="url(#pf4616b2edf)" style="fill: none; stroke: #1f77b4; stroke-opacity: 0.5; stroke-width: 0.2; stroke-linecap: square"/>
   <path d="M 295.486081 214.379381 
L 296.486081 214.410818 
L 297.486081 214.447758 
L 298.486081 214.545504 
L 299.486081 214.578026 
L 300.486081 214.651651 
L 301.486081 214.690216 
L 302.486081 214.725629 
L 303.486081 214.783269 
L 304.486081 214.853656 
L 305.486081 214.90562 
L 306.486081 214.96471 
L 307.486081 215.053031 
L 308.486081 215.099175 
L 309.486081 215.141586 
L 310.486081 215.172078 
L 311.486081 215.198123 
L 312.486081 215.219323 
L 313.486081 215.273625 
L 314.486081 215.301562 
L 315.486081 215.331286 
L 316.486081 215.356681 
L 317.486081 215.367881 
L 318.486081 215.378005 
L 319.486081 215.377801 
L 320.486081 215.368291 
L 321.486081 215.356638 
L 322.486081 215.325608 
L 323.486081 215.31444 
L 324.486081 215.284323 
L 325.486081 215.224546 
L 326.486081 215.187354 
L 327.486081 215.148258 
L 328.486081 215.105819 
L 329.486081 215.073053 
L 330.486081 215.005627 
L 331.486081 214.966501 
L 332.486081 214.923827 
L 333.486081 214.853246 
L 334.486081 214.816855 
L 335.486081 214.758452 
L 336.486081 214.647499 
L 337.486081 214.576841 
L 338.486081 214.463901 
L 339.486081 214.418128 
L 340.486081 214.356845 
L 341.486081 214.308346 
L 342.486081 214.227523 
L 343.486081 214.109004 
L 344.486081 214.038794 
L 345.486081 213.955531 
L 346.486081 213.922389 
L 347.486081 213.871152 
L 348.486081 213.802754 
L 349.486081 213.736538 
L 350.486081 213.659621 
L 351.486081 213.632306 
L 352.486081 213.605828 
L 353.486081 213.583177 
L 354.486081 213.563646 
L 355.486081 213.537252 
L 356.486081 213.487481 
L 357.486081 213.452408 
L 358.679544 213.416543 
" clip-path="url(#pf4616b2edf)" style="fill: none; stroke: #1f77b4; stroke-opacity: 0.5; stroke-width: 0.2; stroke-linecap: square"/>
   <path d="M 295.486081 71.891717 
L 296.486081 71.923153 
L 297.486081 71.960093 
L 298.486081 72.05784 
L 299.486081 72.090361 
L 300.486081 72.163986 
L 301.486081 72.202552 
L 302.486081 72.237965 
L 303.486081 72.295605 
L 304.486081 72.365991 
L 305.486081 72.417955 
L 306.486081 72.477045 
L 307.486081 72.565366 
L 308.486081 72.61151 
L 309.486081 72.653921 
L 310.486081 72.684414 
L 311.486081 72.710459 
L 312.486081 72.731659 
L 313.486081 72.78596 
L 314.486081 72.813898 
L 315.486081 72.843622 
L 316.486081 72.869016 
L 317.486081 72.880217 
L 318.486081 72.890341 
L 319.486081 72.890136 
L 320.486081 72.880626 
L 321.486081 72.868973 
L 322.486081 72.837944 
L 323.486081 72.826776 
L 324.486081 72.796658 
L 325.486081 72.736881 
L 326.486081 72.69969 
L 327.486081 72.660594 
L 328.486081 72.618154 
L 329.486081 72.585389 
L 330.486081 72.517962 
L 331.486081 72.478836 
L 332.486081 72.436162 
L 333.486081 72.365581 
L 334.486081 72.32919 
L 335.486081 72.270787 
L 336.486081 72.159835 
L 337.486081 72.089176 
L 338.486081 71.976237 
L 339.486081 71.930464 
L 340.486081 71.86918 
L 341.486081 71.820681 
L 342.486081 71.739858 
L 343.486081 71.62134 
L 344.486081 71.551129 
L 345.486081 71.467866 
L 346.486081 71.434725 
L 347.486081 71.383487 
L 348.486081 71.315089 
L 349.486081 71.248874 
L 350.486081 71.171956 
L 351.486081 71.144641 
L 352.486081 71.118164 
L 353.486081 71.095513 
L 354.486081 71.075982 
L 355.486081 71.049588 
L 356.486081 70.999817 
L 357.486081 70.964744 
L 358.679544 70.928878 
" clip-path="url(#pf4616b2edf)" style="fill: none; stroke: #1f77b4; stroke-opacity: 0.5; stroke-width: 0.2; stroke-linecap: square"/>
   <path d="M 295.486081 320.312722 
L 296.486081 320.344158 
L 297.486081 320.381099 
L 298.486081 320.478845 
L 299.486081 320.511367 
L 300.486081 320.584991 
L 301.486081 320.623557 
L 302.486081 320.65897 
L 303.486081 320.71661 
L 304.486081 320.786996 
L 305.486081 320.838961 
L 306.486081 320.89805 
L 307.486081 320.986371 
L 308.486081 321.032516 
L 309.486081 321.074926 
L 310.486081 321.105419 
L 311.486081 321.131464 
L 312.486081 321.152664 
L 313.486081 321.206965 
L 314.486081 321.234903 
L 315.486081 321.264627 
L 316.486081 321.290022 
L 317.486081 321.301222 
L 318.486081 321.311346 
L 319.486081 321.311142 
L 320.486081 321.301632 
L 321.486081 321.289978 
L 322.486081 321.258949 
L 323.486081 321.247781 
L 324.486081 321.217663 
L 325.486081 321.157887 
L 326.486081 321.120695 
L 327.486081 321.081599 
L 328.486081 321.039159 
L 329.486081 321.006394 
L 330.486081 320.938968 
L 331.486081 320.899842 
L 332.486081 320.857167 
L 333.486081 320.786587 
L 334.486081 320.750196 
L 335.486081 320.691793 
L 336.486081 320.58084 
L 337.486081 320.510182 
L 338.486081 320.397242 
L 339.486081 320.351469 
L 340.486081 320.290186 
L 341.486081 320.241686 
L 342.486081 320.160864 
L 343.486081 320.042345 
L 344.486081 319.972134 
L 345.486081 319.888872 
L 346.486081 319.85573 
L 347.486081 319.804493 
L 348.486081 319.736094 
L 349.486081 319.669879 
L 350.486081 319.592962 
L 351.486081 319.565646 
L 352.486081 319.539169 
L 353.486081 319.516518 
L 354.486081 319.496987 
L 355.486081 319.470593 
L 356.486081 319.420822 
L 357.486081 319.385749 
L 358.679544 319.349883 
" clip-path="url(#pf4616b2edf)" style="fill: none; stroke: #1f77b4; stroke-opacity: 0.5; stroke-width: 0.2; stroke-linecap: square"/>
   <path d="M 295.486081 243.130391 
L 296.486081 243.161827 
L 297.486081 243.198767 
L 298.486081 243.296514 
L 299.486081 243.329036 
L 300.486081 243.40266 
L 301.486081 243.441226 
L 302.486081 243.476639 
L 303.486081 243.534279 
L 304.486081 243.604665 
L 305.486081 243.656629 
L 306.486081 243.715719 
L 307.486081 243.80404 
L 308.486081 243.850184 
L 309.486081 243.892595 
L 310.486081 243.923088 
L 311.486081 243.949133 
L 312.486081 243.970333 
L 313.486081 244.024634 
L 314.486081 244.052572 
L 315.486081 244.082296 
L 316.486081 244.10769 
L 317.486081 244.118891 
L 318.486081 244.129015 
L 319.486081 244.12881 
L 320.486081 244.119301 
L 321.486081 244.107647 
L 322.486081 244.076618 
L 323.486081 244.06545 
L 324.486081 244.035332 
L 325.486081 243.975555 
L 326.486081 243.938364 
L 327.486081 243.899268 
L 328.486081 243.856828 
L 329.486081 243.824063 
L 330.486081 243.756636 
L 331.486081 243.717511 
L 332.486081 243.674836 
L 333.486081 243.604255 
L 334.486081 243.567865 
L 335.486081 243.509461 
L 336.486081 243.398509 
L 337.486081 243.327851 
L 338.486081 243.214911 
L 339.486081 243.169138 
L 340.486081 243.107855 
L 341.486081 243.059355 
L 342.486081 242.978533 
L 343.486081 242.860014 
L 344.486081 242.789803 
L 345.486081 242.706541 
L 346.486081 242.673399 
L 347.486081 242.622161 
L 348.486081 242.553763 
L 349.486081 242.487548 
L 350.486081 242.410631 
L 351.486081 242.383315 
L 352.486081 242.356838 
L 353.486081 242.334187 
L 354.486081 242.314656 
L 355.486081 242.288262 
L 356.486081 242.238491 
L 357.486081 242.203418 
L 358.679544 242.167552 
" clip-path="url(#pf4616b2edf)" style="fill: none; stroke: #1f77b4; stroke-opacity: 0.5; stroke-width: 0.2; stroke-linecap: square"/>
   <path d="M 295.486081 107.198425 
L 296.486081 107.229861 
L 297.486081 107.266801 
L 298.486081 107.364548 
L 299.486081 107.39707 
L 300.486081 107.470694 
L 301.486081 107.50926 
L 302.486081 107.544673 
L 303.486081 107.602313 
L 304.486081 107.672699 
L 305.486081 107.724663 
L 306.486081 107.783753 
L 307.486081 107.872074 
L 308.486081 107.918218 
L 309.486081 107.960629 
L 310.486081 107.991122 
L 311.486081 108.017167 
L 312.486081 108.038367 
L 313.486081 108.092668 
L 314.486081 108.120606 
L 315.486081 108.15033 
L 316.486081 108.175724 
L 317.486081 108.186925 
L 318.486081 108.197049 
L 319.486081 108.196844 
L 320.486081 108.187335 
L 321.486081 108.175681 
L 322.486081 108.144652 
L 323.486081 108.133484 
L 324.486081 108.103366 
L 325.486081 108.043589 
L 326.486081 108.006398 
L 327.486081 107.967302 
L 328.486081 107.924862 
L 329.486081 107.892097 
L 330.486081 107.824671 
L 331.486081 107.785545 
L 332.486081 107.74287 
L 333.486081 107.672289 
L 334.486081 107.635899 
L 335.486081 107.577495 
L 336.486081 107.466543 
L 337.486081 107.395885 
L 338.486081 107.282945 
L 339.486081 107.237172 
L 340.486081 107.175889 
L 341.486081 107.127389 
L 342.486081 107.046567 
L 343.486081 106.928048 
L 344.486081 106.857837 
L 345.486081 106.774575 
L 346.486081 106.741433 
L 347.486081 106.690195 
L 348.486081 106.621797 
L 349.486081 106.555582 
L 350.486081 106.478665 
L 351.486081 106.451349 
L 352.486081 106.424872 
L 353.486081 106.402221 
L 354.486081 106.38269 
L 355.486081 106.356296 
L 356.486081 106.306525 
L 357.486081 106.271452 
L 358.679544 106.235586 
" clip-path="url(#pf4616b2edf)" style="fill: none; stroke: #1f77b4; stroke-opacity: 0.5; stroke-width: 0.2; stroke-linecap: square"/>
   <path d="M 295.486081 160.359043 
L 296.486081 160.390479 
L 297.486081 160.42742 
L 298.486081 160.525166 
L 299.486081 160.557688 
L 300.486081 160.631313 
L 301.486081 160.669878 
L 302.486081 160.705291 
L 303.486081 160.762931 
L 304.486081 160.833317 
L 305.486081 160.885282 
L 306.486081 160.944371 
L 307.486081 161.032692 
L 308.486081 161.078837 
L 309.486081 161.121248 
L 310.486081 161.15174 
L 311.486081 161.177785 
L 312.486081 161.198985 
L 313.486081 161.253286 
L 314.486081 161.281224 
L 315.486081 161.310948 
L 316.486081 161.336343 
L 317.486081 161.347543 
L 318.486081 161.357667 
L 319.486081 161.357463 
L 320.486081 161.347953 
L 321.486081 161.336299 
L 322.486081 161.30527 
L 323.486081 161.294102 
L 324.486081 161.263985 
L 325.486081 161.204208 
L 326.486081 161.167016 
L 327.486081 161.12792 
L 328.486081 161.08548 
L 329.486081 161.052715 
L 330.486081 160.985289 
L 331.486081 160.946163 
L 332.486081 160.903488 
L 333.486081 160.832908 
L 334.486081 160.796517 
L 335.486081 160.738114 
L 336.486081 160.627161 
L 337.486081 160.556503 
L 338.486081 160.443563 
L 339.486081 160.39779 
L 340.486081 160.336507 
L 341.486081 160.288008 
L 342.486081 160.207185 
L 343.486081 160.088666 
L 344.486081 160.018455 
L 345.486081 159.935193 
L 346.486081 159.902051 
L 347.486081 159.850814 
L 348.486081 159.782415 
L 349.486081 159.7162 
L 350.486081 159.639283 
L 351.486081 159.611967 
L 352.486081 159.58549 
L 353.486081 159.562839 
L 354.486081 159.543308 
L 355.486081 159.516914 
L 356.486081 159.467143 
L 357.486081 159.43207 
L 358.679544 159.396204 
" clip-path="url(#pf4616b2edf)" style="fill: none; stroke: #1f77b4; stroke-opacity: 0.5; stroke-width: 0.2; stroke-linecap: square"/>
   <path d="M 295.486081 320.652962 
L 296.486081 320.684398 
L 297.486081 320.721338 
L 298.486081 320.819085 
L 299.486081 320.851606 
L 300.486081 320.925231 
L 301.486081 320.963797 
L 302.486081 320.99921 
L 303.486081 321.05685 
L 304.486081 321.127236 
L 305.486081 321.1792 
L 306.486081 321.23829 
L 307.486081 321.326611 
L 308.486081 321.372755 
L 309.486081 321.415166 
L 310.486081 321.445659 
L 311.486081 321.471704 
L 312.486081 321.492904 
L 313.486081 321.547205 
L 314.486081 321.575143 
L 315.486081 321.604867 
L 316.486081 321.630261 
L 317.486081 321.641462 
L 318.486081 321.651586 
L 319.486081 321.651381 
L 320.486081 321.641872 
L 321.486081 321.630218 
L 322.486081 321.599189 
L 323.486081 321.588021 
L 324.486081 321.557903 
L 325.486081 321.498126 
L 326.486081 321.460935 
L 327.486081 321.421839 
L 328.486081 321.379399 
L 329.486081 321.346634 
L 330.486081 321.279207 
L 331.486081 321.240082 
L 332.486081 321.197407 
L 333.486081 321.126826 
L 334.486081 321.090436 
L 335.486081 321.032032 
L 336.486081 320.92108 
L 337.486081 320.850421 
L 338.486081 320.737482 
L 339.486081 320.691709 
L 340.486081 320.630426 
L 341.486081 320.581926 
L 342.486081 320.501104 
L 343.486081 320.382585 
L 344.486081 320.312374 
L 345.486081 320.229111 
L 346.486081 320.19597 
L 347.486081 320.144732 
L 348.486081 320.076334 
L 349.486081 320.010119 
L 350.486081 319.933202 
L 351.486081 319.905886 
L 352.486081 319.879409 
L 353.486081 319.856758 
L 354.486081 319.837227 
L 355.486081 319.810833 
L 356.486081 319.761062 
L 357.486081 319.725989 
L 358.679544 319.690123 
" clip-path="url(#pf4616b2edf)" style="fill: none; stroke: #1f77b4; stroke-opacity: 0.5; stroke-width: 0.2; stroke-linecap: square"/>
   <path d="M 295.486081 289.19902 
L 296.486081 289.230457 
L 297.486081 289.267397 
L 298.486081 289.365144 
L 299.486081 289.397665 
L 300.486081 289.47129 
L 301.486081 289.509856 
L 302.486081 289.545269 
L 303.486081 289.602909 
L 304.486081 289.673295 
L 305.486081 289.725259 
L 306.486081 289.784349 
L 307.486081 289.87267 
L 308.486081 289.918814 
L 309.486081 289.961225 
L 310.486081 289.991718 
L 311.486081 290.017763 
L 312.486081 290.038963 
L 313.486081 290.093264 
L 314.486081 290.121202 
L 315.486081 290.150925 
L 316.486081 290.17632 
L 317.486081 290.187521 
L 318.486081 290.197645 
L 319.486081 290.19744 
L 320.486081 290.18793 
L 321.486081 290.176277 
L 322.486081 290.145248 
L 323.486081 290.13408 
L 324.486081 290.103962 
L 325.486081 290.044185 
L 326.486081 290.006994 
L 327.486081 289.967898 
L 328.486081 289.925458 
L 329.486081 289.892693 
L 330.486081 289.825266 
L 331.486081 289.78614 
L 332.486081 289.743466 
L 333.486081 289.672885 
L 334.486081 289.636494 
L 335.486081 289.578091 
L 336.486081 289.467139 
L 337.486081 289.39648 
L 338.486081 289.283541 
L 339.486081 289.237768 
L 340.486081 289.176484 
L 341.486081 289.127985 
L 342.486081 289.047162 
L 343.486081 288.928643 
L 344.486081 288.858433 
L 345.486081 288.77517 
L 346.486081 288.742029 
L 347.486081 288.690791 
L 348.486081 288.622393 
L 349.486081 288.556178 
L 350.486081 288.47926 
L 351.486081 288.451945 
L 352.486081 288.425467 
L 353.486081 288.402817 
L 354.486081 288.383286 
L 355.486081 288.356892 
L 356.486081 288.307121 
L 357.486081 288.272048 
L 358.679544 288.236182 
" clip-path="url(#pf4616b2edf)" style="fill: none; stroke: #1f77b4; stroke-opacity: 0.5; stroke-width: 0.2; stroke-linecap: square"/>
   <path d="M 358.679544 311.068568 
L 357.679544 311.037132 
L 356.679544 311.000192 
L 355.679544 310.902445 
L 354.679544 310.869923 
L 353.679544 310.796299 
L 352.679544 310.757733 
L 351.679544 310.72232 
L 350.679544 310.66468 
L 349.679544 310.594294 
L 348.679544 310.54233 
L 347.679544 310.48324 
L 346.679544 310.394919 
L 345.679544 310.348775 
L 344.679544 310.306364 
L 343.679544 310.275871 
L 342.679544 310.249826 
L 341.679544 310.228626 
L 340.679544 310.174325 
L 339.679544 310.146387 
L 338.679544 310.116663 
L 337.679544 310.091269 
L 336.679544 310.080068 
L 335.679544 310.069944 
L 334.679544 310.070149 
L 333.679544 310.079658 
L 332.679544 310.091312 
L 331.679544 310.122341 
L 330.679544 310.133509 
L 329.679544 310.163627 
L 328.679544 310.223404 
L 327.679544 310.260595 
L 326.679544 310.299691 
L 325.679544 310.342131 
L 324.679544 310.374896 
L 323.679544 310.442322 
L 322.679544 310.481448 
L 321.679544 310.524123 
L 320.679544 310.594704 
L 319.679544 310.631094 
L 318.679544 310.689498 
L 317.679544 310.80045 
L 316.679544 310.871108 
L 315.679544 310.984048 
L 314.679544 311.029821 
L 313.679544 311.091104 
L 312.679544 311.139604 
L 311.679544 311.220426 
L 310.679544 311.338945 
L 309.679544 311.409156 
L 308.679544 311.492418 
L 307.679544 311.52556 
L 306.679544 311.576798 
L 305.679544 311.645196 
L 304.679544 311.711411 
L 303.679544 311.788328 
L 302.679544 311.815644 
L 301.679544 311.842121 
L 300.679544 311.864772 
L 299.679544 311.884303 
L 298.679544 311.910697 
L 297.679544 311.960468 
L 296.679544 311.995541 
L 295.486081 312.031407 
" clip-path="url(#pf4616b2edf)" style="fill: none; stroke: #ff7f0e; stroke-opacity: 0.5; stroke-width: 0.2; stroke-linecap: square"/>
   <path d="M 358.679544 91.691431 
L 357.679544 91.659994 
L 356.679544 91.623054 
L 355.679544 91.525308 
L 354.679544 91.492786 
L 353.679544 91.419161 
L 352.679544 91.380596 
L 351.679544 91.345182 
L 350.679544 91.287543 
L 349.679544 91.217156 
L 348.679544 91.165192 
L 347.679544 91.106102 
L 346.679544 91.017781 
L 345.679544 90.971637 
L 344.679544 90.929226 
L 343.679544 90.898733 
L 342.679544 90.872689 
L 341.679544 90.851488 
L 340.679544 90.797187 
L 339.679544 90.76925 
L 338.679544 90.739526 
L 337.679544 90.714131 
L 336.679544 90.702931 
L 335.679544 90.692807 
L 334.679544 90.693011 
L 333.679544 90.702521 
L 332.679544 90.714174 
L 331.679544 90.745204 
L 330.679544 90.756372 
L 329.679544 90.786489 
L 328.679544 90.846266 
L 327.679544 90.883458 
L 326.679544 90.922554 
L 325.679544 90.964993 
L 324.679544 90.997758 
L 323.679544 91.065185 
L 322.679544 91.104311 
L 321.679544 91.146985 
L 320.679544 91.217566 
L 319.679544 91.253957 
L 318.679544 91.31236 
L 317.679544 91.423313 
L 316.679544 91.493971 
L 315.679544 91.606911 
L 314.679544 91.652684 
L 313.679544 91.713967 
L 312.679544 91.762466 
L 311.679544 91.843289 
L 310.679544 91.961808 
L 309.679544 92.032018 
L 308.679544 92.115281 
L 307.679544 92.148423 
L 306.679544 92.19966 
L 305.679544 92.268058 
L 304.679544 92.334274 
L 303.679544 92.411191 
L 302.679544 92.438506 
L 301.679544 92.464984 
L 300.679544 92.487634 
L 299.679544 92.507166 
L 298.679544 92.53356 
L 297.679544 92.583331 
L 296.679544 92.618404 
L 295.486081 92.654269 
" clip-path="url(#pf4616b2edf)" style="fill: none; stroke: #ff7f0e; stroke-opacity: 0.5; stroke-width: 0.2; stroke-linecap: square"/>
   <path d="M 358.679544 197.792219 
L 357.679544 197.760783 
L 356.679544 197.723843 
L 355.679544 197.626096 
L 354.679544 197.593574 
L 353.679544 197.51995 
L 352.679544 197.481384 
L 351.679544 197.445971 
L 350.679544 197.388331 
L 349.679544 197.317945 
L 348.679544 197.265981 
L 347.679544 197.206891 
L 346.679544 197.11857 
L 345.679544 197.072426 
L 344.679544 197.030015 
L 343.679544 196.999522 
L 342.679544 196.973477 
L 341.679544 196.952277 
L 340.679544 196.897976 
L 339.679544 196.870038 
L 338.679544 196.840314 
L 337.679544 196.81492 
L 336.679544 196.803719 
L 335.679544 196.793595 
L 334.679544 196.7938 
L 333.679544 196.803309 
L 332.679544 196.814963 
L 331.679544 196.845992 
L 330.679544 196.85716 
L 329.679544 196.887278 
L 328.679544 196.947055 
L 327.679544 196.984246 
L 326.679544 197.023342 
L 325.679544 197.065782 
L 324.679544 197.098547 
L 323.679544 197.165973 
L 322.679544 197.205099 
L 321.679544 197.247774 
L 320.679544 197.318355 
L 319.679544 197.354745 
L 318.679544 197.413149 
L 317.679544 197.524101 
L 316.679544 197.594759 
L 315.679544 197.707699 
L 314.679544 197.753472 
L 313.679544 197.814755 
L 312.679544 197.863255 
L 311.679544 197.944077 
L 310.679544 198.062596 
L 309.679544 198.132807 
L 308.679544 198.216069 
L 307.679544 198.249211 
L 306.679544 198.300449 
L 305.679544 198.368847 
L 304.679544 198.435062 
L 303.679544 198.511979 
L 302.679544 198.539295 
L 301.679544 198.565772 
L 300.679544 198.588423 
L 299.679544 198.607954 
L 298.679544 198.634348 
L 297.679544 198.684119 
L 296.679544 198.719192 
L 295.486081 198.755058 
" clip-path="url(#pf4616b2edf)" style="fill: none; stroke: #ff7f0e; stroke-opacity: 0.5; stroke-width: 0.2; stroke-linecap: square"/>
   <path d="M 358.679544 136.624409 
L 357.679544 136.592973 
L 356.679544 136.556032 
L 355.679544 136.458286 
L 354.679544 136.425764 
L 353.679544 136.352139 
L 352.679544 136.313574 
L 351.679544 136.278161 
L 350.679544 136.220521 
L 349.679544 136.150135 
L 348.679544 136.09817 
L 347.679544 136.039081 
L 346.679544 135.95076 
L 345.679544 135.904615 
L 344.679544 135.862204 
L 343.679544 135.831712 
L 342.679544 135.805667 
L 341.679544 135.784467 
L 340.679544 135.730166 
L 339.679544 135.702228 
L 338.679544 135.672504 
L 337.679544 135.647109 
L 336.679544 135.635909 
L 335.679544 135.625785 
L 334.679544 135.625989 
L 333.679544 135.635499 
L 332.679544 135.647153 
L 331.679544 135.678182 
L 330.679544 135.68935 
L 329.679544 135.719467 
L 328.679544 135.779244 
L 327.679544 135.816436 
L 326.679544 135.855532 
L 325.679544 135.897972 
L 324.679544 135.930737 
L 323.679544 135.998163 
L 322.679544 136.037289 
L 321.679544 136.079964 
L 320.679544 136.150544 
L 319.679544 136.186935 
L 318.679544 136.245338 
L 317.679544 136.356291 
L 316.679544 136.426949 
L 315.679544 136.539889 
L 314.679544 136.585662 
L 313.679544 136.646945 
L 312.679544 136.695444 
L 311.679544 136.776267 
L 310.679544 136.894786 
L 309.679544 136.964997 
L 308.679544 137.048259 
L 307.679544 137.081401 
L 306.679544 137.132638 
L 305.679544 137.201037 
L 304.679544 137.267252 
L 303.679544 137.344169 
L 302.679544 137.371485 
L 301.679544 137.397962 
L 300.679544 137.420613 
L 299.679544 137.440144 
L 298.679544 137.466538 
L 297.679544 137.516309 
L 296.679544 137.551382 
L 295.486081 137.587248 
" clip-path="url(#pf4616b2edf)" style="fill: none; stroke: #ff7f0e; stroke-opacity: 0.5; stroke-width: 0.2; stroke-linecap: square"/>
   <path d="M 358.679544 116.489423 
L 357.679544 116.457987 
L 356.679544 116.421046 
L 355.679544 116.3233 
L 354.679544 116.290778 
L 353.679544 116.217154 
L 352.679544 116.178588 
L 351.679544 116.143175 
L 350.679544 116.085535 
L 349.679544 116.015149 
L 348.679544 115.963185 
L 347.679544 115.904095 
L 346.679544 115.815774 
L 345.679544 115.769629 
L 344.679544 115.727219 
L 343.679544 115.696726 
L 342.679544 115.670681 
L 341.679544 115.649481 
L 340.679544 115.59518 
L 339.679544 115.567242 
L 338.679544 115.537518 
L 337.679544 115.512123 
L 336.679544 115.500923 
L 335.679544 115.490799 
L 334.679544 115.491003 
L 333.679544 115.500513 
L 332.679544 115.512167 
L 331.679544 115.543196 
L 330.679544 115.554364 
L 329.679544 115.584482 
L 328.679544 115.644258 
L 327.679544 115.68145 
L 326.679544 115.720546 
L 325.679544 115.762986 
L 324.679544 115.795751 
L 323.679544 115.863177 
L 322.679544 115.902303 
L 321.679544 115.944978 
L 320.679544 116.015558 
L 319.679544 116.051949 
L 318.679544 116.110352 
L 317.679544 116.221305 
L 316.679544 116.291963 
L 315.679544 116.404903 
L 314.679544 116.450676 
L 313.679544 116.511959 
L 312.679544 116.560459 
L 311.679544 116.641281 
L 310.679544 116.7598 
L 309.679544 116.830011 
L 308.679544 116.913273 
L 307.679544 116.946415 
L 306.679544 116.997652 
L 305.679544 117.066051 
L 304.679544 117.132266 
L 303.679544 117.209183 
L 302.679544 117.236499 
L 301.679544 117.262976 
L 300.679544 117.285627 
L 299.679544 117.305158 
L 298.679544 117.331552 
L 297.679544 117.381323 
L 296.679544 117.416396 
L 295.486081 117.452262 
" clip-path="url(#pf4616b2edf)" style="fill: none; stroke: #ff7f0e; stroke-opacity: 0.5; stroke-width: 0.2; stroke-linecap: square"/>
   <path d="M 358.679544 190.486919 
L 357.679544 190.455482 
L 356.679544 190.418542 
L 355.679544 190.320795 
L 354.679544 190.288274 
L 353.679544 190.214649 
L 352.679544 190.176084 
L 351.679544 190.14067 
L 350.679544 190.08303 
L 349.679544 190.012644 
L 348.679544 189.96068 
L 347.679544 189.90159 
L 346.679544 189.813269 
L 345.679544 189.767125 
L 344.679544 189.724714 
L 343.679544 189.694221 
L 342.679544 189.668176 
L 341.679544 189.646976 
L 340.679544 189.592675 
L 339.679544 189.564738 
L 338.679544 189.535014 
L 337.679544 189.509619 
L 336.679544 189.498419 
L 335.679544 189.488295 
L 334.679544 189.488499 
L 333.679544 189.498009 
L 332.679544 189.509662 
L 331.679544 189.540692 
L 330.679544 189.55186 
L 329.679544 189.581977 
L 328.679544 189.641754 
L 327.679544 189.678946 
L 326.679544 189.718042 
L 325.679544 189.760481 
L 324.679544 189.793246 
L 323.679544 189.860673 
L 322.679544 189.899799 
L 321.679544 189.942473 
L 320.679544 190.013054 
L 319.679544 190.049445 
L 318.679544 190.107848 
L 317.679544 190.218801 
L 316.679544 190.289459 
L 315.679544 190.402399 
L 314.679544 190.448172 
L 313.679544 190.509455 
L 312.679544 190.557954 
L 311.679544 190.638777 
L 310.679544 190.757296 
L 309.679544 190.827506 
L 308.679544 190.910769 
L 307.679544 190.943911 
L 306.679544 190.995148 
L 305.679544 191.063546 
L 304.679544 191.129762 
L 303.679544 191.206679 
L 302.679544 191.233994 
L 301.679544 191.260472 
L 300.679544 191.283122 
L 299.679544 191.302654 
L 298.679544 191.329048 
L 297.679544 191.378819 
L 296.679544 191.413892 
L 295.486081 191.449757 
" clip-path="url(#pf4616b2edf)" style="fill: none; stroke: #ff7f0e; stroke-opacity: 0.5; stroke-width: 0.2; stroke-linecap: square"/>
   <path d="M 358.679544 55.342312 
L 357.679544 55.310876 
L 356.679544 55.273935 
L 355.679544 55.176189 
L 354.679544 55.143667 
L 353.679544 55.070043 
L 352.679544 55.031477 
L 351.679544 54.996064 
L 350.679544 54.938424 
L 349.679544 54.868038 
L 348.679544 54.816074 
L 347.679544 54.756984 
L 346.679544 54.668663 
L 345.679544 54.622519 
L 344.679544 54.580108 
L 343.679544 54.549615 
L 342.679544 54.52357 
L 341.679544 54.50237 
L 340.679544 54.448069 
L 339.679544 54.420131 
L 338.679544 54.390407 
L 337.679544 54.365012 
L 336.679544 54.353812 
L 335.679544 54.343688 
L 334.679544 54.343892 
L 333.679544 54.353402 
L 332.679544 54.365056 
L 331.679544 54.396085 
L 330.679544 54.407253 
L 329.679544 54.437371 
L 328.679544 54.497148 
L 327.679544 54.534339 
L 326.679544 54.573435 
L 325.679544 54.615875 
L 324.679544 54.64864 
L 323.679544 54.716066 
L 322.679544 54.755192 
L 321.679544 54.797867 
L 320.679544 54.868447 
L 319.679544 54.904838 
L 318.679544 54.963241 
L 317.679544 55.074194 
L 316.679544 55.144852 
L 315.679544 55.257792 
L 314.679544 55.303565 
L 313.679544 55.364848 
L 312.679544 55.413348 
L 311.679544 55.49417 
L 310.679544 55.612689 
L 309.679544 55.6829 
L 308.679544 55.766162 
L 307.679544 55.799304 
L 306.679544 55.850541 
L 305.679544 55.91894 
L 304.679544 55.985155 
L 303.679544 56.062072 
L 302.679544 56.089388 
L 301.679544 56.115865 
L 300.679544 56.138516 
L 299.679544 56.158047 
L 298.679544 56.184441 
L 297.679544 56.234212 
L 296.679544 56.269285 
L 295.486081 56.305151 
" clip-path="url(#pf4616b2edf)" style="fill: none; stroke: #ff7f0e; stroke-opacity: 0.5; stroke-width: 0.2; stroke-linecap: square"/>
   <path d="M 358.679544 93.4843 
L 357.679544 93.452864 
L 356.679544 93.415924 
L 355.679544 93.318177 
L 354.679544 93.285656 
L 353.679544 93.212031 
L 352.679544 93.173465 
L 351.679544 93.138052 
L 350.679544 93.080412 
L 349.679544 93.010026 
L 348.679544 92.958062 
L 347.679544 92.898972 
L 346.679544 92.810651 
L 345.679544 92.764507 
L 344.679544 92.722096 
L 343.679544 92.691603 
L 342.679544 92.665558 
L 341.679544 92.644358 
L 340.679544 92.590057 
L 339.679544 92.562119 
L 338.679544 92.532395 
L 337.679544 92.507001 
L 336.679544 92.4958 
L 335.679544 92.485676 
L 334.679544 92.485881 
L 333.679544 92.495391 
L 332.679544 92.507044 
L 331.679544 92.538073 
L 330.679544 92.549241 
L 329.679544 92.579359 
L 328.679544 92.639136 
L 327.679544 92.676327 
L 326.679544 92.715423 
L 325.679544 92.757863 
L 324.679544 92.790628 
L 323.679544 92.858055 
L 322.679544 92.897181 
L 321.679544 92.939855 
L 320.679544 93.010436 
L 319.679544 93.046827 
L 318.679544 93.10523 
L 317.679544 93.216182 
L 316.679544 93.286841 
L 315.679544 93.39978 
L 314.679544 93.445553 
L 313.679544 93.506837 
L 312.679544 93.555336 
L 311.679544 93.636159 
L 310.679544 93.754677 
L 309.679544 93.824888 
L 308.679544 93.908151 
L 307.679544 93.941292 
L 306.679544 93.99253 
L 305.679544 94.060928 
L 304.679544 94.127143 
L 303.679544 94.204061 
L 302.679544 94.231376 
L 301.679544 94.257853 
L 300.679544 94.280504 
L 299.679544 94.300035 
L 298.679544 94.326429 
L 297.679544 94.3762 
L 296.679544 94.411273 
L 295.486081 94.447139 
" clip-path="url(#pf4616b2edf)" style="fill: none; stroke: #ff7f0e; stroke-opacity: 0.5; stroke-width: 0.2; stroke-linecap: square"/>
   <path d="M 358.679544 117.434594 
L 357.679544 117.403157 
L 356.679544 117.366217 
L 355.679544 117.26847 
L 354.679544 117.235949 
L 353.679544 117.162324 
L 352.679544 117.123759 
L 351.679544 117.088345 
L 350.679544 117.030705 
L 349.679544 116.960319 
L 348.679544 116.908355 
L 347.679544 116.849265 
L 346.679544 116.760944 
L 345.679544 116.7148 
L 344.679544 116.672389 
L 343.679544 116.641896 
L 342.679544 116.615851 
L 341.679544 116.594651 
L 340.679544 116.54035 
L 339.679544 116.512413 
L 338.679544 116.482689 
L 337.679544 116.457294 
L 336.679544 116.446094 
L 335.679544 116.43597 
L 334.679544 116.436174 
L 333.679544 116.445684 
L 332.679544 116.457337 
L 331.679544 116.488367 
L 330.679544 116.499535 
L 329.679544 116.529652 
L 328.679544 116.589429 
L 327.679544 116.626621 
L 326.679544 116.665717 
L 325.679544 116.708156 
L 324.679544 116.740921 
L 323.679544 116.808348 
L 322.679544 116.847474 
L 321.679544 116.890148 
L 320.679544 116.960729 
L 319.679544 116.99712 
L 318.679544 117.055523 
L 317.679544 117.166476 
L 316.679544 117.237134 
L 315.679544 117.350074 
L 314.679544 117.395847 
L 313.679544 117.45713 
L 312.679544 117.505629 
L 311.679544 117.586452 
L 310.679544 117.704971 
L 309.679544 117.775181 
L 308.679544 117.858444 
L 307.679544 117.891586 
L 306.679544 117.942823 
L 305.679544 118.011221 
L 304.679544 118.077437 
L 303.679544 118.154354 
L 302.679544 118.181669 
L 301.679544 118.208147 
L 300.679544 118.230797 
L 299.679544 118.250329 
L 298.679544 118.276723 
L 297.679544 118.326494 
L 296.679544 118.361567 
L 295.486081 118.397432 
" clip-path="url(#pf4616b2edf)" style="fill: none; stroke: #ff7f0e; stroke-opacity: 0.5; stroke-width: 0.2; stroke-linecap: square"/>
   <path d="M 358.679544 60.942973 
L 357.679544 60.911536 
L 356.679544 60.874596 
L 355.679544 60.776849 
L 354.679544 60.744328 
L 353.679544 60.670703 
L 352.679544 60.632137 
L 351.679544 60.596724 
L 350.679544 60.539084 
L 349.679544 60.468698 
L 348.679544 60.416734 
L 347.679544 60.357644 
L 346.679544 60.269323 
L 345.679544 60.223179 
L 344.679544 60.180768 
L 343.679544 60.150275 
L 342.679544 60.12423 
L 341.679544 60.10303 
L 340.679544 60.048729 
L 339.679544 60.020792 
L 338.679544 59.991068 
L 337.679544 59.965673 
L 336.679544 59.954472 
L 335.679544 59.944348 
L 334.679544 59.944553 
L 333.679544 59.954063 
L 332.679544 59.965716 
L 331.679544 59.996745 
L 330.679544 60.007913 
L 329.679544 60.038031 
L 328.679544 60.097808 
L 327.679544 60.134999 
L 326.679544 60.174095 
L 325.679544 60.216535 
L 324.679544 60.2493 
L 323.679544 60.316727 
L 322.679544 60.355853 
L 321.679544 60.398527 
L 320.679544 60.469108 
L 319.679544 60.505499 
L 318.679544 60.563902 
L 317.679544 60.674854 
L 316.679544 60.745513 
L 315.679544 60.858453 
L 314.679544 60.904225 
L 313.679544 60.965509 
L 312.679544 61.014008 
L 311.679544 61.094831 
L 310.679544 61.21335 
L 309.679544 61.28356 
L 308.679544 61.366823 
L 307.679544 61.399964 
L 306.679544 61.451202 
L 305.679544 61.5196 
L 304.679544 61.585816 
L 303.679544 61.662733 
L 302.679544 61.690048 
L 301.679544 61.716526 
L 300.679544 61.739176 
L 299.679544 61.758708 
L 298.679544 61.785101 
L 297.679544 61.834872 
L 296.679544 61.869945 
L 295.486081 61.905811 
" clip-path="url(#pf4616b2edf)" style="fill: none; stroke: #ff7f0e; stroke-opacity: 0.5; stroke-width: 0.2; stroke-linecap: square"/>
   <g id="patch_3">
    <path d="M 75.703551 10.8 
L 75.703551 321.621875 
M 289.955738 10.8 
L 289.955738 321.621875 
" clip-path="url(#pf4616b2edf)" style="fill: none; stroke: #ffffff; stroke-width: 3; stroke-linejoin: miter"/>
    <path d="M 75.703551 10.8 
L 75.703551 321.621875 
M 289.955738 10.8 
L 289.955738 321.621875 
" clip-path="url(#pf4616b2edf)" style="fill: none; stroke: #1f77b4; stroke-linejoin: miter"/>
    <g id="PolyCollection_1">
     <path d="M 289.955738 10.8 
L 75.703551 10.8 
L 75.703551 321.621875 
L 289.955738 321.621875 
L 289.955738 321.621875 
L 289.955738 10.8 
z
" clip-path="url(#pf4616b2edf)" style="fill: #1f77b4; fill-opacity: 0.5"/>
    </g>
    <g id="patch_4">
     <path d="M 364.209887 10.8 
L 364.209887 321.621875 
M 578.462074 10.8 
L 578.462074 321.621875 
" clip-path="url(#pf4616b2edf)" style="fill: none; stroke: #ffffff; stroke-width: 3; stroke-linejoin: miter"/>
     <path d="M 364.209887 10.8 
L 364.209887 321.621875 
M 578.462074 10.8 
L 578.462074 321.621875 
" clip-path="url(#pf4616b2edf)" style="fill: none; stroke: #ff7f0e; stroke-linejoin: miter"/>
     <g id="PolyCollection_2">
      <path d="M 578.462074 10.8 
L 364.209887 10.8 
L 364.209887 321.621875 
L 578.462074 321.621875 
L 578.462074 321.621875 
L 578.462074 10.8 
z
" clip-path="url(#pf4616b2edf)" style="fill: #ff7f0e; fill-opacity: 0.5"/>
     </g>
     <g id="matplotlib.axis_1">
      <g id="xtick_1">
       <g id="line2d_1"/>
       <g id="text_1">
        <!-- A -->
        <g transform="translate(179.409332 332.720312)scale(0.1 -0.1)">
         <defs>
          <path id="DejaVuSans-41" d="M 2188 4044 
L 1331 1722 
L 3047 1722 
L 2188 4044 
z
M 1831 4666 
L 2547 4666 
L 4325 0 
L 3669 0 
L 3244 1197 
L 1141 1197 
L 716 0 
L 50 0 
L 1831 4666 
z
" transform="scale(0.015625)"/>
         </defs>
         <use xlink:href="#DejaVuSans-41"/>
        </g>
       </g>
      </g>
      <g id="xtick_2">
       <g id="line2d_2"/>
       <g id="text_2">
        <!-- B -->
        <g transform="translate(467.905512 332.720312)scale(0.1 -0.1)">
         <defs>
          <path id="DejaVuSans-42" d="M 1259 2228 
L 1259 519 
L 2272 519 
Q 2781 519 3026 730 
Q 3272 941 3272 1375 
Q 3272 1813 3026 2020 
Q 2781 2228 2272 2228 
L 1259 2228 
z
M 1259 4147 
L 1259 2741 
L 2194 2741 
Q 2656 2741 2882 2914 
Q 3109 3088 3109 3444 
Q 3109 3797 2882 3972 
Q 2656 4147 2194 4147 
L 1259 4147 
z
M 628 4666 
L 2241 4666 
Q 2963 4666 3353 4366 
Q 3744 4066 3744 3513 
Q 3744 3084 3544 2831 
Q 3344 2578 2956 2516 
Q 3422 2416 3680 2098 
Q 3938 1781 3938 1306 
Q 3938 681 3513 340 
Q 3088 0 2303 0 
L 628 0 
L 628 4666 
z
" transform="scale(0.015625)"/>
         </defs>
         <use xlink:href="#DejaVuSans-42"/>
        </g>
       </g>
      </g>
     </g>
     <g id="matplotlib.axis_2">
      <g id="ytick_1">
       <g id="line2d_3">
        <defs>
         <path id="m95c623d392" d="M 0 0 
L -3.5 0 
" style="stroke: #000000; stroke-width: 0.8"/>
        </defs>
        <g>
         <use xlink:href="#m95c623d392" x="50.565625" y="321.621875" style="stroke: #000000; stroke-width: 0.8"/>
        </g>
       </g>
       <g id="text_3">
        <!-- 0 -->
        <g transform="translate(37.203125 325.421094)scale(0.1 -0.1)">
         <defs>
          <path id="DejaVuSans-30" d="M 2034 4250 
Q 1547 4250 1301 3770 
Q 1056 3291 1056 2328 
Q 1056 1369 1301 889 
Q 1547 409 2034 409 
Q 2525 409 2770 889 
Q 3016 1369 3016 2328 
Q 3016 3291 2770 3770 
Q 2525 4250 2034 4250 
z
M 2034 4750 
Q 2819 4750 3233 4129 
Q 3647 3509 3647 2328 
Q 3647 1150 3233 529 
Q 2819 -91 2034 -91 
Q 1250 -91 836 529 
Q 422 1150 422 2328 
Q 422 3509 836 4129 
Q 1250 4750 2034 4750 
z
" transform="scale(0.015625)"/>
         </defs>
         <use xlink:href="#DejaVuSans-30"/>
        </g>
       </g>
      </g>
      <g id="ytick_2">
       <g id="line2d_4">
        <g>
         <use xlink:href="#m95c623d392" x="50.565625" y="266.609154" style="stroke: #000000; stroke-width: 0.8"/>
        </g>
       </g>
       <g id="text_4">
        <!-- 20 -->
        <g transform="translate(30.840625 270.408373)scale(0.1 -0.1)">
         <defs>
          <path id="DejaVuSans-32" d="M 1228 531 
L 3431 531 
L 3431 0 
L 469 0 
L 469 531 
Q 828 903 1448 1529 
Q 2069 2156 2228 2338 
Q 2531 2678 2651 2914 
Q 2772 3150 2772 3378 
Q 2772 3750 2511 3984 
Q 2250 4219 1831 4219 
Q 1534 4219 1204 4116 
Q 875 4013 500 3803 
L 500 4441 
Q 881 4594 1212 4672 
Q 1544 4750 1819 4750 
Q 2544 4750 2975 4387 
Q 3406 4025 3406 3419 
Q 3406 3131 3298 2873 
Q 3191 2616 2906 2266 
Q 2828 2175 2409 1742 
Q 1991 1309 1228 531 
z
" transform="scale(0.015625)"/>
         </defs>
         <use xlink:href="#DejaVuSans-32"/>
         <use xlink:href="#DejaVuSans-30" x="63.623047"/>
        </g>
       </g>
      </g>
      <g id="ytick_3">
       <g id="line2d_5">
        <g>
         <use xlink:href="#m95c623d392" x="50.565625" y="211.596433" style="stroke: #000000; stroke-width: 0.8"/>
        </g>
       </g>
       <g id="text_5">
        <!-- 40 -->
        <g transform="translate(30.840625 215.395651)scale(0.1 -0.1)">
         <defs>
          <path id="DejaVuSans-34" d="M 2419 4116 
L 825 1625 
L 2419 1625 
L 2419 4116 
z
M 2253 4666 
L 3047 4666 
L 3047 1625 
L 3713 1625 
L 3713 1100 
L 3047 1100 
L 3047 0 
L 2419 0 
L 2419 1100 
L 313 1100 
L 313 1709 
L 2253 4666 
z
" transform="scale(0.015625)"/>
         </defs>
         <use xlink:href="#DejaVuSans-34"/>
         <use xlink:href="#DejaVuSans-30" x="63.623047"/>
        </g>
       </g>
      </g>
      <g id="ytick_4">
       <g id="line2d_6">
        <g>
         <use xlink:href="#m95c623d392" x="50.565625" y="156.583711" style="stroke: #000000; stroke-width: 0.8"/>
        </g>
       </g>
       <g id="text_6">
        <!-- 60 -->
        <g transform="translate(30.840625 160.38293)scale(0.1 -0.1)">
         <defs>
          <path id="DejaVuSans-36" d="M 2113 2584 
Q 1688 2584 1439 2293 
Q 1191 2003 1191 1497 
Q 1191 994 1439 701 
Q 1688 409 2113 409 
Q 2538 409 2786 701 
Q 3034 994 3034 1497 
Q 3034 2003 2786 2293 
Q 2538 2584 2113 2584 
z
M 3366 4563 
L 3366 3988 
Q 3128 4100 2886 4159 
Q 2644 4219 2406 4219 
Q 1781 4219 1451 3797 
Q 1122 3375 1075 2522 
Q 1259 2794 1537 2939 
Q 1816 3084 2150 3084 
Q 2853 3084 3261 2657 
Q 3669 2231 3669 1497 
Q 3669 778 3244 343 
Q 2819 -91 2113 -91 
Q 1303 -91 875 529 
Q 447 1150 447 2328 
Q 447 3434 972 4092 
Q 1497 4750 2381 4750 
Q 2619 4750 2861 4703 
Q 3103 4656 3366 4563 
z
" transform="scale(0.015625)"/>
         </defs>
         <use xlink:href="#DejaVuSans-36"/>
         <use xlink:href="#DejaVuSans-30" x="63.623047"/>
        </g>
       </g>
      </g>
      <g id="ytick_5">
       <g id="line2d_7">
        <g>
         <use xlink:href="#m95c623d392" x="50.565625" y="101.57099" style="stroke: #000000; stroke-width: 0.8"/>
        </g>
       </g>
       <g id="text_7">
        <!-- 80 -->
        <g transform="translate(30.840625 105.370209)scale(0.1 -0.1)">
         <defs>
          <path id="DejaVuSans-38" d="M 2034 2216 
Q 1584 2216 1326 1975 
Q 1069 1734 1069 1313 
Q 1069 891 1326 650 
Q 1584 409 2034 409 
Q 2484 409 2743 651 
Q 3003 894 3003 1313 
Q 3003 1734 2745 1975 
Q 2488 2216 2034 2216 
z
M 1403 2484 
Q 997 2584 770 2862 
Q 544 3141 544 3541 
Q 544 4100 942 4425 
Q 1341 4750 2034 4750 
Q 2731 4750 3128 4425 
Q 3525 4100 3525 3541 
Q 3525 3141 3298 2862 
Q 3072 2584 2669 2484 
Q 3125 2378 3379 2068 
Q 3634 1759 3634 1313 
Q 3634 634 3220 271 
Q 2806 -91 2034 -91 
Q 1263 -91 848 271 
Q 434 634 434 1313 
Q 434 1759 690 2068 
Q 947 2378 1403 2484 
z
M 1172 3481 
Q 1172 3119 1398 2916 
Q 1625 2713 2034 2713 
Q 2441 2713 2670 2916 
Q 2900 3119 2900 3481 
Q 2900 3844 2670 4047 
Q 2441 4250 2034 4250 
Q 1625 4250 1398 4047 
Q 1172 3844 1172 3481 
z
" transform="scale(0.015625)"/>
         </defs>
         <use xlink:href="#DejaVuSans-38"/>
         <use xlink:href="#DejaVuSans-30" x="63.623047"/>
        </g>
       </g>
      </g>
      <g id="ytick_6">
       <g id="line2d_8">
        <g>
         <use xlink:href="#m95c623d392" x="50.565625" y="46.558269" style="stroke: #000000; stroke-width: 0.8"/>
        </g>
       </g>
       <g id="text_8">
        <!-- 100 -->
        <g transform="translate(24.478125 50.357488)scale(0.1 -0.1)">
         <defs>
          <path id="DejaVuSans-31" d="M 794 531 
L 1825 531 
L 1825 4091 
L 703 3866 
L 703 4441 
L 1819 4666 
L 2450 4666 
L 2450 531 
L 3481 531 
L 3481 0 
L 794 0 
L 794 531 
z
" transform="scale(0.015625)"/>
         </defs>
         <use xlink:href="#DejaVuSans-31"/>
         <use xlink:href="#DejaVuSans-30" x="63.623047"/>
         <use xlink:href="#DejaVuSans-30" x="127.246094"/>
        </g>
       </g>
      </g>
      <g id="text_9">
       <!-- time ago (generations) -->
       <g transform="translate(18.398438 223.682031)rotate(-90)scale(0.1 -0.1)">
        <defs>
         <path id="DejaVuSans-74" d="M 1172 4494 
L 1172 3500 
L 2356 3500 
L 2356 3053 
L 1172 3053 
L 1172 1153 
Q 1172 725 1289 603 
Q 1406 481 1766 481 
L 2356 481 
L 2356 0 
L 1766 0 
Q 1100 0 847 248 
Q 594 497 594 1153 
L 594 3053 
L 172 3053 
L 172 3500 
L 594 3500 
L 594 4494 
L 1172 4494 
z
" transform="scale(0.015625)"/>
         <path id="DejaVuSans-69" d="M 603 3500 
L 1178 3500 
L 1178 0 
L 603 0 
L 603 3500 
z
M 603 4863 
L 1178 4863 
L 1178 4134 
L 603 4134 
L 603 4863 
z
" transform="scale(0.015625)"/>
         <path id="DejaVuSans-6d" d="M 3328 2828 
Q 3544 3216 3844 3400 
Q 4144 3584 4550 3584 
Q 5097 3584 5394 3201 
Q 5691 2819 5691 2113 
L 5691 0 
L 5113 0 
L 5113 2094 
Q 5113 2597 4934 2840 
Q 4756 3084 4391 3084 
Q 3944 3084 3684 2787 
Q 3425 2491 3425 1978 
L 3425 0 
L 2847 0 
L 2847 2094 
Q 2847 2600 2669 2842 
Q 2491 3084 2119 3084 
Q 1678 3084 1418 2786 
Q 1159 2488 1159 1978 
L 1159 0 
L 581 0 
L 581 3500 
L 1159 3500 
L 1159 2956 
Q 1356 3278 1631 3431 
Q 1906 3584 2284 3584 
Q 2666 3584 2933 3390 
Q 3200 3197 3328 2828 
z
" transform="scale(0.015625)"/>
         <path id="DejaVuSans-65" d="M 3597 1894 
L 3597 1613 
L 953 1613 
Q 991 1019 1311 708 
Q 1631 397 2203 397 
Q 2534 397 2845 478 
Q 3156 559 3463 722 
L 3463 178 
Q 3153 47 2828 -22 
Q 2503 -91 2169 -91 
Q 1331 -91 842 396 
Q 353 884 353 1716 
Q 353 2575 817 3079 
Q 1281 3584 2069 3584 
Q 2775 3584 3186 3129 
Q 3597 2675 3597 1894 
z
M 3022 2063 
Q 3016 2534 2758 2815 
Q 2500 3097 2075 3097 
Q 1594 3097 1305 2825 
Q 1016 2553 972 2059 
L 3022 2063 
z
" transform="scale(0.015625)"/>
         <path id="DejaVuSans-20" transform="scale(0.015625)"/>
         <path id="DejaVuSans-61" d="M 2194 1759 
Q 1497 1759 1228 1600 
Q 959 1441 959 1056 
Q 959 750 1161 570 
Q 1363 391 1709 391 
Q 2188 391 2477 730 
Q 2766 1069 2766 1631 
L 2766 1759 
L 2194 1759 
z
M 3341 1997 
L 3341 0 
L 2766 0 
L 2766 531 
Q 2569 213 2275 61 
Q 1981 -91 1556 -91 
Q 1019 -91 701 211 
Q 384 513 384 1019 
Q 384 1609 779 1909 
Q 1175 2209 1959 2209 
L 2766 2209 
L 2766 2266 
Q 2766 2663 2505 2880 
Q 2244 3097 1772 3097 
Q 1472 3097 1187 3025 
Q 903 2953 641 2809 
L 641 3341 
Q 956 3463 1253 3523 
Q 1550 3584 1831 3584 
Q 2591 3584 2966 3190 
Q 3341 2797 3341 1997 
z
" transform="scale(0.015625)"/>
         <path id="DejaVuSans-67" d="M 2906 1791 
Q 2906 2416 2648 2759 
Q 2391 3103 1925 3103 
Q 1463 3103 1205 2759 
Q 947 2416 947 1791 
Q 947 1169 1205 825 
Q 1463 481 1925 481 
Q 2391 481 2648 825 
Q 2906 1169 2906 1791 
z
M 3481 434 
Q 3481 -459 3084 -895 
Q 2688 -1331 1869 -1331 
Q 1566 -1331 1297 -1286 
Q 1028 -1241 775 -1147 
L 775 -588 
Q 1028 -725 1275 -790 
Q 1522 -856 1778 -856 
Q 2344 -856 2625 -561 
Q 2906 -266 2906 331 
L 2906 616 
Q 2728 306 2450 153 
Q 2172 0 1784 0 
Q 1141 0 747 490 
Q 353 981 353 1791 
Q 353 2603 747 3093 
Q 1141 3584 1784 3584 
Q 2172 3584 2450 3431 
Q 2728 3278 2906 2969 
L 2906 3500 
L 3481 3500 
L 3481 434 
z
" transform="scale(0.015625)"/>
         <path id="DejaVuSans-6f" d="M 1959 3097 
Q 1497 3097 1228 2736 
Q 959 2375 959 1747 
Q 959 1119 1226 758 
Q 1494 397 1959 397 
Q 2419 397 2687 759 
Q 2956 1122 2956 1747 
Q 2956 2369 2687 2733 
Q 2419 3097 1959 3097 
z
M 1959 3584 
Q 2709 3584 3137 3096 
Q 3566 2609 3566 1747 
Q 3566 888 3137 398 
Q 2709 -91 1959 -91 
Q 1206 -91 779 398 
Q 353 888 353 1747 
Q 353 2609 779 3096 
Q 1206 3584 1959 3584 
z
" transform="scale(0.015625)"/>
         <path id="DejaVuSans-28" d="M 1984 4856 
Q 1566 4138 1362 3434 
Q 1159 2731 1159 2009 
Q 1159 1288 1364 580 
Q 1569 -128 1984 -844 
L 1484 -844 
Q 1016 -109 783 600 
Q 550 1309 550 2009 
Q 550 2706 781 3412 
Q 1013 4119 1484 4856 
L 1984 4856 
z
" transform="scale(0.015625)"/>
         <path id="DejaVuSans-6e" d="M 3513 2113 
L 3513 0 
L 2938 0 
L 2938 2094 
Q 2938 2591 2744 2837 
Q 2550 3084 2163 3084 
Q 1697 3084 1428 2787 
Q 1159 2491 1159 1978 
L 1159 0 
L 581 0 
L 581 3500 
L 1159 3500 
L 1159 2956 
Q 1366 3272 1645 3428 
Q 1925 3584 2291 3584 
Q 2894 3584 3203 3211 
Q 3513 2838 3513 2113 
z
" transform="scale(0.015625)"/>
         <path id="DejaVuSans-72" d="M 2631 2963 
Q 2534 3019 2420 3045 
Q 2306 3072 2169 3072 
Q 1681 3072 1420 2755 
Q 1159 2438 1159 1844 
L 1159 0 
L 581 0 
L 581 3500 
L 1159 3500 
L 1159 2956 
Q 1341 3275 1631 3429 
Q 1922 3584 2338 3584 
Q 2397 3584 2469 3576 
Q 2541 3569 2628 3553 
L 2631 2963 
z
" transform="scale(0.015625)"/>
         <path id="DejaVuSans-73" d="M 2834 3397 
L 2834 2853 
Q 2591 2978 2328 3040 
Q 2066 3103 1784 3103 
Q 1356 3103 1142 2972 
Q 928 2841 928 2578 
Q 928 2378 1081 2264 
Q 1234 2150 1697 2047 
L 1894 2003 
Q 2506 1872 2764 1633 
Q 3022 1394 3022 966 
Q 3022 478 2636 193 
Q 2250 -91 1575 -91 
Q 1294 -91 989 -36 
Q 684 19 347 128 
L 347 722 
Q 666 556 975 473 
Q 1284 391 1588 391 
Q 1994 391 2212 530 
Q 2431 669 2431 922 
Q 2431 1156 2273 1281 
Q 2116 1406 1581 1522 
L 1381 1569 
Q 847 1681 609 1914 
Q 372 2147 372 2553 
Q 372 3047 722 3315 
Q 1072 3584 1716 3584 
Q 2034 3584 2315 3537 
Q 2597 3491 2834 3397 
z
" transform="scale(0.015625)"/>
         <path id="DejaVuSans-29" d="M 513 4856 
L 1013 4856 
Q 1481 4119 1714 3412 
Q 1947 2706 1947 2009 
Q 1947 1309 1714 600 
Q 1481 -109 1013 -844 
L 513 -844 
Q 928 -128 1133 580 
Q 1338 1288 1338 2009 
Q 1338 2731 1133 3434 
Q 928 4138 513 4856 
z
" transform="scale(0.015625)"/>
        </defs>
        <use xlink:href="#DejaVuSans-74"/>
        <use xlink:href="#DejaVuSans-69" x="39.208984"/>
        <use xlink:href="#DejaVuSans-6d" x="66.992188"/>
        <use xlink:href="#DejaVuSans-65" x="164.404297"/>
        <use xlink:href="#DejaVuSans-20" x="225.927734"/>
        <use xlink:href="#DejaVuSans-61" x="257.714844"/>
        <use xlink:href="#DejaVuSans-67" x="318.994141"/>
        <use xlink:href="#DejaVuSans-6f" x="382.470703"/>
        <use xlink:href="#DejaVuSans-20" x="443.652344"/>
        <use xlink:href="#DejaVuSans-28" x="475.439453"/>
        <use xlink:href="#DejaVuSans-67" x="514.453125"/>
        <use xlink:href="#DejaVuSans-65" x="577.929688"/>
        <use xlink:href="#DejaVuSans-6e" x="639.453125"/>
        <use xlink:href="#DejaVuSans-65" x="702.832031"/>
        <use xlink:href="#DejaVuSans-72" x="764.355469"/>
        <use xlink:href="#DejaVuSans-61" x="805.46875"/>
        <use xlink:href="#DejaVuSans-74" x="866.748047"/>
        <use xlink:href="#DejaVuSans-69" x="905.957031"/>
        <use xlink:href="#DejaVuSans-6f" x="933.740234"/>
        <use xlink:href="#DejaVuSans-6e" x="994.921875"/>
        <use xlink:href="#DejaVuSans-73" x="1058.300781"/>
        <use xlink:href="#DejaVuSans-29" x="1110.400391"/>
       </g>
      </g>
     </g>
     <path d="M 359.679544 305.985034 
L 357.679544 304.985034 
L 357.679544 306.985034 
z
" clip-path="url(#pf4616b2edf)" style="fill: #1f77b4; fill-opacity: 0.5; stroke: #1f77b4; stroke-opacity: 0.5; stroke-linejoin: miter"/>
     <path d="M 359.679544 114.209736 
L 357.679544 113.209736 
L 357.679544 115.209736 
z
" clip-path="url(#pf4616b2edf)" style="fill: #1f77b4; fill-opacity: 0.5; stroke: #1f77b4; stroke-opacity: 0.5; stroke-linejoin: miter"/>
     <path d="M 359.679544 214.379381 
L 357.679544 213.379381 
L 357.679544 215.379381 
z
" clip-path="url(#pf4616b2edf)" style="fill: #1f77b4; fill-opacity: 0.5; stroke: #1f77b4; stroke-opacity: 0.5; stroke-linejoin: miter"/>
     <path d="M 359.679544 71.891717 
L 357.679544 70.891717 
L 357.679544 72.891717 
z
" clip-path="url(#pf4616b2edf)" style="fill: #1f77b4; fill-opacity: 0.5; stroke: #1f77b4; stroke-opacity: 0.5; stroke-linejoin: miter"/>
     <path d="M 359.679544 320.312722 
L 357.679544 319.312722 
L 357.679544 321.312722 
z
" clip-path="url(#pf4616b2edf)" style="fill: #1f77b4; fill-opacity: 0.5; stroke: #1f77b4; stroke-opacity: 0.5; stroke-linejoin: miter"/>
     <path d="M 359.679544 243.130391 
L 357.679544 242.130391 
L 357.679544 244.130391 
z
" clip-path="url(#pf4616b2edf)" style="fill: #1f77b4; fill-opacity: 0.5; stroke: #1f77b4; stroke-opacity: 0.5; stroke-linejoin: miter"/>
     <path d="M 359.679544 107.198425 
L 357.679544 106.198425 
L 357.679544 108.198425 
z
" clip-path="url(#pf4616b2edf)" style="fill: #1f77b4; fill-opacity: 0.5; stroke: #1f77b4; stroke-opacity: 0.5; stroke-linejoin: miter"/>
     <path d="M 359.679544 160.359043 
L 357.679544 159.359043 
L 357.679544 161.359043 
z
" clip-path="url(#pf4616b2edf)" style="fill: #1f77b4; fill-opacity: 0.5; stroke: #1f77b4; stroke-opacity: 0.5; stroke-linejoin: miter"/>
     <path d="M 359.679544 320.652962 
L 357.679544 319.652962 
L 357.679544 321.652962 
z
" clip-path="url(#pf4616b2edf)" style="fill: #1f77b4; fill-opacity: 0.5; stroke: #1f77b4; stroke-opacity: 0.5; stroke-linejoin: miter"/>
     <path d="M 359.679544 289.19902 
L 357.679544 288.19902 
L 357.679544 290.19902 
z
" clip-path="url(#pf4616b2edf)" style="fill: #1f77b4; fill-opacity: 0.5; stroke: #1f77b4; stroke-opacity: 0.5; stroke-linejoin: miter"/>
     <path d="M 294.486081 311.068568 
L 296.486081 312.068568 
L 296.486081 310.068568 
z
" clip-path="url(#pf4616b2edf)" style="fill: #ff7f0e; fill-opacity: 0.5; stroke: #ff7f0e; stroke-opacity: 0.5; stroke-linejoin: miter"/>
     <path d="M 294.486081 91.691431 
L 296.486081 92.691431 
L 296.486081 90.691431 
z
" clip-path="url(#pf4616b2edf)" style="fill: #ff7f0e; fill-opacity: 0.5; stroke: #ff7f0e; stroke-opacity: 0.5; stroke-linejoin: miter"/>
     <path d="M 294.486081 197.792219 
L 296.486081 198.792219 
L 296.486081 196.792219 
z
" clip-path="url(#pf4616b2edf)" style="fill: #ff7f0e; fill-opacity: 0.5; stroke: #ff7f0e; stroke-opacity: 0.5; stroke-linejoin: miter"/>
     <path d="M 294.486081 136.624409 
L 296.486081 137.624409 
L 296.486081 135.624409 
z
" clip-path="url(#pf4616b2edf)" style="fill: #ff7f0e; fill-opacity: 0.5; stroke: #ff7f0e; stroke-opacity: 0.5; stroke-linejoin: miter"/>
     <path d="M 294.486081 116.489423 
L 296.486081 117.489423 
L 296.486081 115.489423 
z
" clip-path="url(#pf4616b2edf)" style="fill: #ff7f0e; fill-opacity: 0.5; stroke: #ff7f0e; stroke-opacity: 0.5; stroke-linejoin: miter"/>
     <path d="M 294.486081 190.486919 
L 296.486081 191.486919 
L 296.486081 189.486919 
z
" clip-path="url(#pf4616b2edf)" style="fill: #ff7f0e; fill-opacity: 0.5; stroke: #ff7f0e; stroke-opacity: 0.5; stroke-linejoin: miter"/>
     <path d="M 294.486081 55.342312 
L 296.486081 56.342312 
L 296.486081 54.342312 
z
" clip-path="url(#pf4616b2edf)" style="fill: #ff7f0e; fill-opacity: 0.5; stroke: #ff7f0e; stroke-opacity: 0.5; stroke-linejoin: miter"/>
     <path d="M 294.486081 93.4843 
L 296.486081 94.4843 
L 296.486081 92.4843 
z
" clip-path="url(#pf4616b2edf)" style="fill: #ff7f0e; fill-opacity: 0.5; stroke: #ff7f0e; stroke-opacity: 0.5; stroke-linejoin: miter"/>
     <path d="M 294.486081 117.434594 
L 296.486081 118.434594 
L 296.486081 116.434594 
z
" clip-path="url(#pf4616b2edf)" style="fill: #ff7f0e; fill-opacity: 0.5; stroke: #ff7f0e; stroke-opacity: 0.5; stroke-linejoin: miter"/>
     <path d="M 294.486081 60.942973 
L 296.486081 61.942973 
L 296.486081 59.942973 
z
" clip-path="url(#pf4616b2edf)" style="fill: #ff7f0e; fill-opacity: 0.5; stroke: #ff7f0e; stroke-opacity: 0.5; stroke-linejoin: miter"/>
     <g id="patch_5">
      <path d="M 50.565625 321.621875 
L 50.565625 10.8 
" style="fill: none; stroke: #000000; stroke-width: 0.8; stroke-linejoin: miter; stroke-linecap: square"/>
     </g>
    </g>
   </g>
   <defs>
    <clipPath id="pf4616b2edf">
     <rect x="50.565625" y="10.8" width="553.034375" height="310.821875"/>
    </clipPath>
   </defs>
  </g>
 </g>
</svg>
